PathFileType	4	(X/Y/Z)	C:/Users/opensim2020/Desktop/walking_exp_matlab/subject06_walking14_straight_01.trc	
DataRate	CameraRate	NumFrames	NumMarkers	Units	OrigDataRate	OrigDataStartFrame	OrigNumFrames	
100.00	100.00	4	45	mm	100.00	987	203	
Frame#	Time	LFHD			RFHD			LBHD			RBHD			C7			T10			CLAV			STRN			RBAK			LSHO			LUPA			LELB			LFRM			LWRA			LWRB			LFIN			RSHO			RUPA			RELB			RFRM			RWRA			RWRB			RFIN			LASI			RASI			LPSI			RPSI			LTHI			LKNE			LTIB			LANK			LHEE			LTOE			RTHI			RKNE			RTIB			RANK			RHEE			RTOE			*39			*40			*41			*42			*43			*44			
		X1	Y1	Z1	X2	Y2	Z2	X3	Y3	Z3	X4	Y4	Z4	X5	Y5	Z5	X6	Y6	Z6	X7	Y7	Z7	X8	Y8	Z8	X9	Y9	Z9	X10	Y10	Z10	X11	Y11	Z11	X12	Y12	Z12	X13	Y13	Z13	X14	Y14	Z14	X15	Y15	Z15	X16	Y16	Z16	X17	Y17	Z17	X18	Y18	Z18	X19	Y19	Z19	X20	Y20	Z20	X21	Y21	Z21	X22	Y22	Z22	X23	Y23	Z23	X24	Y24	Z24	X25	Y25	Z25	X26	Y26	Z26	X27	Y27	Z27	X28	Y28	Z28	X29	Y29	Z29	X30	Y30	Z30	X31	Y31	Z31	X32	Y32	Z32	X33	Y33	Z33	X34	Y34	Z34	X35	Y35	Z35	X36	Y36	Z36	X37	Y37	Z37	X38	Y38	Z38	X39	Y39	Z39	X40	Y40	Z40	X41	Y41	Z41	X42	Y42	Z42	X43	Y43	Z43	X44	Y44	Z44	X45	Y45	Z45	

178	1.770	1360.28015	504.52551	1655.63147	1491.23486	511.96243	1646.46216	1368.46240	371.84918	1600.29272	1497.75903	380.55444	1596.36267	1423.05029	374.44641	1442.52515	1431.21399	345.49484	1113.26563	1424.83618	485.66452	1366.46948	1416.98328	528.25079	1192.48730	1494.93774	303.67017	1269.63928	1263.26733	428.60620	1397.22705	1186.92212	450.31287	1198.47717	1170.01807	468.76114	1088.30139	1148.45959	559.32990	969.71368	1192.24036	671.51385	909.30090	1156.33899	624.91376	869.89996	1152.48169	704.99854	830.33374	1585.75537	435.10712	1397.71899	1668.07190	370.99194	1204.32861	1678.11499	362.96594	1082.07678	1696.60620	354.42282	962.20618	1668.44568	384.07483	811.73260	1707.53027	331.56009	826.33643	1710.72656	349.11688	743.12860	1321.85181	511.84189	949.20013	1538.47485	533.91425	971.26843	1360.50781	358.96277	975.73627	1526.82727	379.92365	989.44647	1279.03625	413.84680	631.45355	1298.57788	395.60080	468.04086	1316.51624	205.01546	297.53400	1360.54688	90.19888	169.81271	1408.93713	57.13353	188.85417	1371.35901	159.39981	39.84322	1597.74902	551.71606	644.67371	1564.31702	579.45587	524.74817	1567.09680	577.12421	256.60815	1519.38928	579.86597	71.49818	1479.08191	537.67786	47.65018	1500.56433	731.69476	41.61797	1424.65369	407.19812	1694.47729															 
179	1.780	1360.88708	515.25891	1657.40161	1492.87280	523.68298	1648.63977	1369.17603	382.73514	1601.81494	1498.43811	391.60025	1597.78455	1423.89612	385.76752	1444.18225	1432.45862	356.72519	1115.24731	1425.42737	497.14441	1368.26123	1417.62708	539.78735	1194.19287	1496.18250	315.57028	1271.76440	1264.24072	439.77219	1398.97058	1188.25562	460.80832	1200.24866	1171.93054	477.22995	1089.54297	1149.72534	564.98737	968.75146	1192.25818	676.19073	905.40485	1156.97217	628.23383	867.29761	1152.77332	707.22241	825.34039	1586.35205	447.07272	1399.81189	1668.95105	384.30377	1206.16797	1679.14490	376.95392	1083.82166	1697.54138	369.67749	963.90222	1669.17810	400.96643	813.72473	1708.41382	348.35934	827.84161	1711.63953	366.78943	744.81927	1323.00513	522.55615	950.86786	1539.50952	544.94684	972.73962	1361.88708	369.80115	977.21320	1527.88220	391.26633	991.27509	1278.90417	429.03232	631.91357	1297.49561	414.58344	468.29199	1315.93738	222.39838	302.28726	1358.88318	104.76482	176.96533	1407.44238	73.12067	198.27509	1371.19141	164.70772	42.57551	1598.97913	558.26056	644.52570	1565.47205	585.21582	524.59796	1567.12976	579.58246	256.34579	1519.04651	580.49225	71.48665	1479.06702	538.00110	47.67637	1500.40771	732.20551	41.21161	1425.38989	417.93387	1696.02087															 
180	1.790	1361.40283	525.79553	1659.01208	1493.33801	534.57111	1650.29736	1369.85522	393.64935	1603.10938	1499.05115	402.59033	1599.08423	1424.74207	397.07895	1445.64746	1433.80322	367.68341	1117.06372	1426.02649	508.49716	1369.91687	1418.33423	551.16772	1195.72327	1497.69250	327.26620	1273.74646	1265.19897	450.80588	1400.44617	1189.39526	471.03809	1201.70520	1173.69458	485.44083	1090.46375	1150.94214	570.43628	967.54742	1192.28003	680.35889	901.24750	1157.92847	631.30463	864.52246	1153.20837	709.06775	820.09631	1586.97168	459.09787	1401.75293	1670.06909	397.58957	1207.89380	1680.26550	390.87695	1085.46631	1698.38928	385.20010	965.39429	1669.88269	418.20618	815.70117	1709.25806	365.43533	829.14783	1712.40662	385.00278	746.21722	1323.79883	533.03003	952.50348	1540.35486	555.84424	973.87988	1363.14355	380.35110	978.52936	1528.87061	402.34689	992.77820	1278.79810	444.20309	632.27161	1296.69336	433.89087	468.52780	1314.92749	240.78899	306.25687	1357.19446	120.13600	184.26968	1405.52832	89.74610	207.69716	1371.10620	171.89816	46.58718	1599.69299	563.20313	643.76007	1566.67346	590.91333	524.22791	1567.16663	581.81329	256.22073	1518.79822	580.87775	71.49554	1478.76440	537.85760	48.37030	1500.39209	732.62109	40.83908	1425.98218	428.52539	1697.39880															 
181	1.800	1361.74854	536.53589	1660.65491	1493.52673	545.54816	1651.88464	1370.44324	404.47531	1604.26721	1499.61987	413.62238	1600.38745	1425.65454	408.27606	1447.12146	1435.11389	378.74191	1118.63782	1426.50549	519.76398	1371.38293	1418.95178	562.32727	1197.14038	1499.41785	338.61795	1275.45081	1265.98511	461.73721	1401.70044	1190.51929	480.77948	1202.77429	1175.42126	493.40536	1091.01648	1151.98425	575.83093	965.99402	1192.43213	684.46869	897.00739	1158.34497	633.96899	861.62164	1153.49182	710.53723	814.73480	1587.62231	471.19443	1403.53064	1671.30103	410.94186	1209.41394	1681.52405	404.87885	1086.93945	1699.50195	400.72336	966.76422	1670.48804	435.27625	817.37213	1710.05090	382.90881	830.20453	1713.14294	403.67041	747.75006	1324.25598	543.38342	953.94067	1541.01758	566.93176	974.75342	1364.31616	390.55902	979.71899	1530.07507	412.89194	994.26257	1278.83936	459.56931	632.67487	1296.25049	453.42587	468.83704	1313.95288	260.06131	309.22604	1355.74036	136.35143	191.60251	1403.65857	107.03677	216.79559	1370.52075	181.25430	51.56431	1600.74597	568.90100	643.76941	1567.70313	596.46954	523.70300	1567.40149	583.37640	256.08392	1518.64746	580.90082	71.53777	1478.77673	537.99036	48.33878	1500.61108	732.89911	40.46462	1426.39893	439.06070	1698.71460															 
